<svg width="598" height="108" viewBox="0 0 598 108" fill="none" xmlns="http://www.w3.org/2000/svg">
<path d="M7.97338 13.0482C7.97338 10.759 7.59364 9.04212 6.8343 7.89758C6.07497 6.75299 4.29043 6.02812 1.48078 5.72287C0.493602 5.49396 1.60187e-05 4.88351 1.60187e-05 3.89154V3.03312C-0.00128571 2.69533 0.0767665 2.36199 0.227826 2.06024C0.683442 2.06024 1.34789 2.04115 2.22115 2.003C3.09443 1.96485 4.02465 1.9267 5.01182 1.88854C5.99902 1.85039 6.9862 1.79317 7.97338 1.71687C8.96049 1.64055 9.87179 1.56425 10.7071 1.48795C12.6055 1.25903 14.4279 0.953811 16.1745 0.572287C17.921 0.190763 19.098 0 19.7056 0C20.9204 0 21.528 0.572287 21.528 1.71687C21.5137 3.38189 21.3996 5.04452 21.1862 6.69578C20.9433 8.84253 20.8292 11.0021 20.8445 13.1626V39.1444C22.6049 36.4642 24.845 34.1355 27.451 32.2769C29.957 30.522 33.3741 29.6444 37.7026 29.6444C40.5397 29.6193 43.3513 30.1843 45.9606 31.304C48.4995 32.4071 50.7722 34.0466 52.624 36.1112C54.5225 38.2097 56.0031 40.7849 57.0662 43.8372C58.1293 46.8894 58.661 50.3613 58.661 54.2528C58.661 58.5259 57.8447 62.341 56.212 65.6984C54.6807 68.9165 52.5768 71.8257 50.0042 74.283C47.6225 76.5669 44.8424 78.3906 41.803 79.6625C38.8416 80.8832 35.9939 81.4934 33.2602 81.4934C30.559 81.4719 27.8674 81.1647 25.2299 80.5783C22.131 79.8784 19.1284 78.8018 16.2883 77.3733C15.4271 77.5083 14.5974 77.7989 13.8395 78.2316C13.172 78.616 12.5256 79.0361 11.9031 79.4903C11.3335 79.9107 10.8399 80.2729 10.4223 80.5783C10.1168 80.8382 9.73903 80.9979 9.34022 81.0356C8.62202 81.0062 7.92039 80.8102 7.28992 80.4635C7.72783 76.4343 7.95598 72.3846 7.97338 68.3307V13.0482ZM20.8445 71.3069C22.3056 73.0415 24.1618 74.3959 26.255 75.2555C28.3046 76.0643 30.4889 76.472 32.6907 76.4575C36.5635 76.4575 39.468 74.7599 41.4045 71.3642C43.3408 67.9685 44.309 63.2184 44.309 57.1143C44.3231 54.3688 44.0751 51.6284 43.5686 48.9305C43.1581 46.6197 42.4096 44.3826 41.3474 42.292C40.4365 40.51 39.1073 38.9779 37.4747 37.8282C35.8305 36.7067 33.8801 36.1267 31.8933 36.1685C30.5264 36.1685 29.1787 36.6073 27.8498 37.4848C26.4759 38.4057 25.2797 39.5691 24.3187 40.9185C23.2684 42.3775 22.4251 43.9761 21.8128 45.6685C21.1804 47.3515 20.8526 49.1347 20.8445 50.9335V71.3069ZM72.6714 55.6263C72.6348 52.0739 73.313 48.5506 74.6645 45.2679C75.9413 42.1786 77.8195 39.3768 80.1888 37.027C82.6035 34.6603 85.471 32.8108 88.6176 31.5903C92.0316 30.2656 95.6657 29.6053 99.3248 29.6444C103.349 29.6444 106.995 30.293 110.26 31.5903C113.407 32.8108 116.274 34.6603 118.689 37.027C121.048 39.3619 122.891 42.1698 124.099 45.2679C125.377 48.5688 126.015 52.0847 125.979 55.6263C126.015 59.1788 125.337 62.7019 123.985 65.9846C122.71 69.0725 120.81 71.8592 118.404 74.1682C115.949 76.4976 113.067 78.3249 109.918 79.5478C106.504 80.8723 102.87 81.5328 99.2112 81.4934C95.1867 81.4934 91.5412 80.8449 88.2762 79.5478C85.1523 78.3422 82.3039 76.5119 79.9042 74.1682C77.5678 71.8484 75.744 69.06 74.5509 65.9846C73.2729 62.684 72.6348 59.1679 72.6714 55.6263ZM87.0234 53.3371C87.0234 60.3571 88.1811 65.9655 90.4971 70.1622C92.8132 74.3589 96.1357 76.4575 100.464 76.4575C104.489 76.4575 107.355 74.8358 109.064 71.5932C110.772 68.3499 111.627 63.7911 111.627 57.9154C111.627 50.9717 110.449 45.3633 108.096 41.0901C105.741 36.8172 102.439 34.6806 98.1856 34.6806C94.1611 34.6806 91.2949 36.3402 89.5858 39.6595C87.8773 42.9788 87.0234 47.538 87.0234 53.3371ZM167.667 80.6925C165.694 80.54 163.433 80.4061 160.89 80.292C158.347 80.1773 155.973 80.1205 153.772 80.1205C151.341 80.1205 148.931 80.1773 146.539 80.292C144.147 80.4061 141.963 80.54 139.989 80.6925C139.911 80.3727 139.853 80.0475 139.818 79.7193C139.777 79.3201 139.759 78.919 139.761 78.518C139.761 77.9836 139.894 77.6214 140.16 77.4307C140.417 77.2436 140.706 77.1079 141.014 77.0295C143.444 76.5722 145.115 76.0761 146.026 75.5418C146.937 75.008 147.393 74.1682 147.393 73.0235V13.0482C147.393 10.759 146.975 9.02305 146.14 7.84031C145.304 6.65758 143.558 5.95178 140.9 5.72287C139.913 5.49396 139.42 4.88351 139.42 3.89154V2.9759C139.403 2.65476 139.483 2.33613 139.647 2.06024C140.103 2.06024 140.767 2.04115 141.64 2.003C142.514 1.96485 143.444 1.9267 144.431 1.88854C145.418 1.85039 146.405 1.79317 147.393 1.71687C148.38 1.64055 149.291 1.56425 150.127 1.48795C152.025 1.25903 153.847 0.953811 155.594 0.572287C157.34 0.190763 158.517 0 159.125 0C160.34 0 160.948 0.572287 160.948 1.71687C160.922 2.81174 160.808 3.90269 160.606 4.9789C160.378 6.31425 160.264 8.20278 160.264 10.6445V73.0235C160.264 74.1682 160.72 75.008 161.631 75.5418C162.542 76.0761 164.212 76.5722 166.643 77.0295C167.477 77.1826 167.896 77.6787 167.896 78.518C167.896 79.5861 167.82 80.3112 167.667 80.6925ZM231.226 69.4754C231.219 70.2591 231.258 71.0427 231.341 71.8222C231.399 72.4312 231.638 73.0086 232.024 73.4815C232.485 73.9925 233.076 74.3685 233.733 74.5687C234.732 74.8866 235.763 75.0978 236.808 75.1987C237.871 75.3511 238.402 75.8473 238.402 76.6865V77.8312C238.418 78.152 238.338 78.4707 238.174 78.7468C237.188 78.7468 235.649 78.8036 233.561 78.9185C231.474 79.0326 229.708 79.2047 228.266 79.4337C226.594 79.6625 224.944 79.9483 223.31 80.292C221.677 80.6351 220.557 80.8072 219.95 80.8072C219.266 80.8072 218.829 80.6734 218.641 80.4061C218.449 80.1396 218.355 79.7002 218.355 79.09V72.2227C217.411 73.5448 216.383 74.8066 215.28 75.9997C214.225 77.1365 213.018 78.1193 211.692 78.9185C210.285 79.7523 208.771 80.3876 207.192 80.8072C205.332 81.2884 203.417 81.5192 201.498 81.4934C198.666 81.5192 195.858 80.9741 193.239 79.8915C190.696 78.8234 188.419 77.2006 186.576 75.1413C184.677 73.0427 183.197 70.4676 182.133 67.4156C181.071 64.363 180.539 60.8915 180.539 56.9999C180.539 52.803 181.355 49.0068 182.988 45.6113C184.509 42.3705 186.613 39.4407 189.195 36.9697C191.586 34.6811 194.362 32.84 197.397 31.533C200.358 30.2741 203.206 29.6444 205.939 29.6444C207.989 29.6282 210.032 29.8393 212.033 30.2741C213.894 30.6937 216.001 31.2851 218.355 32.0481V13.0482C218.355 10.6827 217.975 8.94678 217.216 7.84031C216.457 6.73392 214.673 6.02812 211.862 5.72287C211.455 5.5946 211.07 5.40138 210.723 5.15057C210.42 4.92166 210.269 4.50199 210.269 3.89154C210.287 3.27529 210.363 2.66216 210.496 2.06024C211.028 2.06024 211.711 2.04115 212.546 2.003C213.381 1.96485 214.293 1.9267 215.28 1.88854C216.267 1.85039 217.253 1.79317 218.242 1.71687C219.228 1.64055 220.14 1.56425 220.976 1.48795C222.831 1.27876 224.676 0.973124 226.5 0.572287C228.209 0.190763 229.366 0 229.973 0C231.265 0 231.91 0.572287 231.91 1.71687C231.896 3.38189 231.782 5.04452 231.568 6.69578C231.326 8.84253 231.211 11.0021 231.226 13.1626V69.4754ZM218.355 39.9456C214.861 36.4356 210.913 34.6806 206.509 34.6806C202.561 34.6806 199.636 36.4165 197.739 39.8885C195.841 43.3603 194.891 48.1102 194.891 54.1384C194.877 56.8838 195.125 59.6243 195.631 62.3218C196.042 64.6327 196.79 66.8699 197.853 68.9608C198.745 70.7217 200.057 72.2352 201.668 73.3672C203.224 74.4353 205.105 74.9697 207.306 74.9697C208.674 74.9697 210.021 74.5311 211.35 73.6536C212.714 72.7426 213.909 71.6003 214.881 70.2769C215.939 68.843 216.783 67.2621 217.388 65.5843C218.019 63.901 218.347 62.118 218.355 60.3188V39.9456ZM278.269 73.3672C278.533 73.0642 278.866 72.8293 279.238 72.6805C279.44 72.6147 279.651 72.5764 279.864 72.5657C280.547 72.5657 281.156 73.0618 281.686 74.054C279.841 76.1588 277.691 77.9722 275.307 79.4337C273.113 80.7834 270.59 81.4964 268.018 81.4934C266.56 81.5012 265.106 81.3278 263.69 80.9788C262.351 80.6513 261.129 79.9579 260.158 78.9758C259.172 77.9836 258.393 76.629 257.823 74.9124C257.254 73.1957 256.97 70.9639 256.97 68.2166V36.6263H250.134V35.3674C250.131 34.8573 250.227 34.3513 250.42 33.8794C250.61 33.4216 251.007 33.1926 251.616 33.1926C253.666 33.1926 255.337 32.6586 256.627 31.5903C257.968 30.4584 259.055 29.054 259.816 27.4699C260.728 25.6385 261.525 23.9216 262.208 22.3193C262.893 20.7168 263.652 19.9156 264.486 19.9156H266.538V31.8191H279.864C279.864 33.4216 279.694 34.6233 279.351 35.4246C279.009 36.2258 278.384 36.6263 277.472 36.6263H266.538V65.0116C266.508 66.9823 266.622 68.9524 266.878 70.9064C267.106 72.3942 267.448 73.5387 267.904 74.3404C268.36 75.1413 268.891 75.6565 269.498 75.8855C270.156 76.1227 270.851 76.2388 271.549 76.2285C272.797 76.2388 274.027 75.9447 275.137 75.3702C276.239 74.7977 277.287 74.1277 278.269 73.3672ZM310.048 41.7769C310.277 41.6244 310.921 40.9376 311.986 39.7168C313.256 38.3004 314.647 36.9983 316.143 35.8251C317.962 34.381 319.928 33.1342 322.008 32.1054C324.275 30.984 326.772 30.4154 329.299 30.4456C331.076 30.4388 332.843 30.709 334.538 31.2469C336.185 31.7669 337.687 32.6685 338.924 33.8794C340.248 35.2114 341.277 36.8108 341.942 38.5722C342.702 40.4798 343.082 42.8452 343.082 45.6685V73.5962C343.082 74.7409 343.765 75.5992 345.131 76.1712C346.635 76.7827 348.202 77.2238 349.802 77.4875C350.409 77.6405 350.712 78.0983 350.712 78.861C350.694 79.4772 350.618 80.0905 350.485 80.6925C348.51 80.54 346.593 80.4061 344.732 80.292C342.872 80.1773 340.803 80.1205 338.525 80.1205C336.55 80.1205 334.557 80.1773 332.545 80.292C330.533 80.4061 328.54 80.54 326.565 80.6925C326.432 80.0905 326.355 79.4772 326.338 78.861C326.338 78.0983 326.678 77.6405 327.362 77.4875C328.077 77.4044 328.783 77.2514 329.47 77.0295C330.154 76.8157 330.82 76.5477 331.462 76.2285C332.03 75.9518 332.55 75.5849 333.001 75.1413C333.205 74.9405 333.366 74.6995 333.473 74.4336C333.58 74.1682 333.634 73.8831 333.627 73.5962V51.1625C333.637 49.4016 333.523 47.6422 333.285 45.8974C333.103 44.437 332.658 43.0216 331.975 41.7196C331.37 40.5793 330.464 39.6287 329.356 38.9727C328.254 38.3241 326.831 37.9999 325.085 37.9999C323.181 38.0005 321.294 38.3296 319.502 38.9727C317.717 39.599 316.073 40.571 314.662 41.8342C313.232 43.1271 312.088 44.7061 311.301 46.4697C310.467 48.301 310.048 50.3995 310.048 52.7649V73.5962C310.048 74.7409 310.694 75.5992 311.986 76.1712C313.373 76.7738 314.825 77.2155 316.314 77.4875C316.997 77.6405 317.339 78.0983 317.339 78.861C317.32 79.4772 317.243 80.0905 317.11 80.6925C315.137 80.54 313.199 80.4061 311.301 80.292C309.404 80.1773 307.391 80.1205 305.264 80.1205C303.062 80.1205 300.973 80.1773 299 80.292C297.025 80.4061 295.089 80.54 293.19 80.6925C293.057 80.0905 292.981 79.4772 292.963 78.861C292.963 78.0983 293.267 77.6405 293.874 77.4875C295.475 77.2238 297.041 76.7827 298.544 76.1712C299.912 75.5992 300.594 74.7026 300.594 73.4815V11.9036C300.594 9.46184 300.139 7.82124 299.227 6.98191C298.317 6.14252 296.494 5.57026 293.76 5.26505C292.773 5.11244 292.28 4.57829 292.28 3.66263C292.291 3.12124 292.368 2.58321 292.507 2.06024C293.494 2.06024 294.862 2.003 296.608 1.88854C298.354 1.77409 299.949 1.64055 301.392 1.48795C302.968 1.29278 304.529 0.986817 306.062 0.572287C307.429 0.190763 308.415 0 309.024 0C309.707 0 310.163 0.15261 310.39 0.457829C310.637 0.829083 310.757 1.27103 310.733 1.71687C310.717 3.22975 310.603 4.73999 310.39 6.23791C310.147 8.23129 310.032 10.2386 310.048 12.247V41.7769ZM376.114 80.1205C374.822 80.1205 373.512 80.1396 372.183 80.1773C370.854 80.2154 369.621 80.2729 368.482 80.3493C367.342 80.4252 366.356 80.5018 365.52 80.5783C364.684 80.6542 364.154 80.6925 363.926 80.6925C363.926 80.6159 363.887 80.3493 363.813 79.8915C363.748 79.5514 363.711 79.2072 363.698 78.861C363.698 78.0983 364.04 77.6405 364.723 77.4875C366.362 77.2042 367.966 76.7439 369.507 76.1144C370.723 75.5801 371.33 74.7026 371.33 73.4815V42.3493C371.33 40.0602 370.93 38.4195 370.134 37.4275C369.337 36.4356 367.608 35.8251 364.95 35.5962C363.964 35.4436 363.47 34.9096 363.47 33.9938C363.488 33.4906 363.564 32.9913 363.698 32.5059C364.686 32.5059 366.07 32.4486 367.855 32.3342C369.64 32.2198 371.101 32.0862 372.24 31.9335C373.988 31.6284 375.544 31.304 376.91 30.9607C378.277 30.6174 379.265 30.4456 379.872 30.4456C380.937 30.4456 381.467 31.0179 381.467 32.1625C381.448 33.4474 381.334 34.7291 381.125 35.9968C380.868 37.9507 380.755 39.9208 380.784 41.8915V73.4815C380.784 74.7026 381.371 75.5801 382.55 76.1144C383.726 76.6482 385.378 77.1061 387.504 77.4875C388.111 77.6405 388.414 78.0983 388.414 78.861C388.414 79.09 388.396 79.4337 388.358 79.8915C388.32 80.3493 388.263 80.6159 388.187 80.6925C387.96 80.6925 387.447 80.6542 386.649 80.5783C385.852 80.5018 384.885 80.4252 383.746 80.3493C382.606 80.2729 381.371 80.2154 380.044 80.1773C378.715 80.1396 377.404 80.1205 376.114 80.1205ZM369.507 11.3313C369.483 9.56041 370.16 7.8522 371.386 6.58131C371.987 5.92896 372.72 5.4129 373.535 5.0675C374.35 4.72211 375.229 4.55533 376.114 4.57829C376.972 4.55989 377.824 4.72952 378.611 5.07542C379.398 5.42132 380.101 5.93516 380.67 6.58131C381.866 7.86799 382.519 9.57063 382.493 11.3313C382.493 13.3152 381.884 14.9176 380.67 16.1385C380.075 16.7401 379.364 17.213 378.58 17.528C377.796 17.8428 376.957 17.9932 376.114 17.9699C374.215 17.9699 372.639 17.3594 371.386 16.1385C370.134 14.9176 369.507 13.3152 369.507 11.3313ZM451.291 73.5962C451.291 74.7409 451.974 75.5992 453.341 76.1712C454.808 76.7731 456.336 77.2142 457.898 77.4875C458.581 77.6405 458.922 78.0983 458.922 78.861C458.904 79.4772 458.827 80.0905 458.694 80.6925C456.719 80.54 454.783 80.4061 452.885 80.292C450.986 80.1773 448.937 80.1205 446.734 80.1205C444.685 80.1205 442.653 80.1773 440.641 80.292C438.629 80.4061 436.634 80.54 434.661 80.6925C434.528 80.0905 434.451 79.4772 434.434 78.861C434.434 78.0983 434.774 77.6405 435.458 77.4875C436.946 77.2155 438.398 76.7738 439.786 76.1712C441.077 75.5992 441.723 74.7409 441.723 73.5962V51.1625C441.733 49.4016 441.618 47.6422 441.381 45.8974C441.197 44.437 440.754 43.0216 440.071 41.7196C439.466 40.5793 438.56 39.6287 437.45 38.9727C436.35 38.3241 434.927 37.9999 433.181 37.9999C431.277 38.0005 429.39 38.3296 427.598 38.9727C425.813 39.599 424.169 40.571 422.758 41.8342C421.328 43.1271 420.184 44.7061 419.397 46.4697C418.563 48.301 418.144 50.3995 418.144 52.7649V73.5962C418.144 74.7409 418.809 75.5992 420.138 76.1712C421.513 76.7576 422.944 77.1988 424.41 77.4875C425.093 77.6405 425.434 78.0983 425.434 78.861C425.416 79.4772 425.339 80.0905 425.206 80.6925C423.231 80.54 421.295 80.4061 419.397 80.292C417.498 80.1773 415.486 80.1205 413.36 80.1205C411.158 80.1205 409.069 80.1773 407.096 80.292C405.121 80.4061 403.185 80.54 401.286 80.6925C401.153 80.0905 401.077 79.4772 401.059 78.861C401.059 78.0983 401.4 77.6405 402.085 77.4875C403.644 77.2142 405.173 76.7731 406.64 76.1712C408.006 75.5992 408.69 74.7026 408.69 73.4815V42.3493C408.69 40.0602 408.292 38.4195 407.494 37.4275C406.697 36.4356 404.97 35.8251 402.312 35.5962C401.325 35.4436 400.83 34.9096 400.83 33.9938C400.848 33.4906 400.924 32.9913 401.059 32.5059C402.046 32.5059 403.432 32.4486 405.217 32.3342C407 32.2198 408.462 32.0862 409.602 31.9335C411.348 31.6284 412.906 31.304 414.272 30.9607C415.638 30.6174 416.625 30.4456 417.234 30.4456C418.297 30.4456 418.829 31.0179 418.829 32.1625C418.809 33.4474 418.694 34.7291 418.486 35.9968C418.23 37.9507 418.115 39.9208 418.144 41.8915C421.409 38.2288 424.543 35.4055 427.542 33.4216C430.456 31.4632 433.888 30.4268 437.394 30.4456C442.027 30.4456 445.501 31.8001 447.817 34.5089C450.133 37.2177 451.291 40.9757 451.291 45.7829V73.5962ZM478.629 77.7163C475.362 75.809 473.73 73.0618 473.73 69.4754C473.73 65.6601 476.235 62.5317 481.248 60.0898C479.143 58.8164 477.399 57.0237 476.178 54.8823C474.926 52.7077 474.299 50.0178 474.299 46.8131C474.304 44.6579 474.831 42.5362 475.838 40.6324C476.878 38.6284 478.29 36.8415 479.995 35.3674C481.766 33.8267 483.789 32.6068 485.975 31.762C488.244 30.8789 490.66 30.4323 493.094 30.4456C496.89 30.4456 499.928 30.9035 502.206 31.8191C504.344 32.6529 506.341 33.8108 508.13 35.253L519.406 30.3312C520.213 30.8338 520.849 31.5726 521.229 32.4486C521.584 33.2211 521.777 34.0586 521.798 34.9096C521.798 36.5882 521.229 37.4275 520.09 37.4275L515.989 37.3131C514.223 37.3538 512.466 37.5839 510.749 37.9999C512.571 40.3652 513.483 43.2649 513.483 46.6987C513.504 48.9734 512.956 51.2172 511.888 53.2226C510.822 55.2103 509.347 56.9466 507.56 58.3161C505.604 59.7958 503.407 60.9189 501.067 61.6355C498.487 62.4479 495.798 62.8531 493.094 62.8371C491.571 62.8418 490.048 62.7462 488.538 62.5508C487.14 62.3715 485.766 62.045 484.437 61.5783C482.462 62.494 481.095 63.4097 480.336 64.3248C479.576 65.2406 479.197 66.118 479.197 66.9578C479.205 67.5932 479.403 68.2113 479.766 68.7319C480.146 69.3039 480.849 69.8 481.874 70.2196C482.898 70.6393 484.343 70.9828 486.202 71.2495C488.564 71.5466 490.943 71.6805 493.322 71.6506C496.566 71.6357 499.805 71.9041 503.003 72.4515C505.799 72.9059 508.509 73.794 511.034 75.084C513.23 76.1987 515.111 77.852 516.502 79.8915C517.831 81.8754 518.494 84.2789 518.494 87.1019C518.494 90.2305 517.868 93.0542 516.615 95.5718C515.362 98.0889 513.574 100.297 511.375 102.039C509.136 103.832 506.439 105.205 503.289 106.159C499.941 107.141 496.467 107.623 492.981 107.59C485.842 107.59 480.261 106.293 476.237 103.699C472.211 101.104 470.198 96.9453 470.198 91.2227C470.182 89.6417 470.452 88.0709 470.997 86.5873C471.5 85.2305 472.168 83.9423 472.99 82.7528C473.759 81.6381 474.679 80.6369 475.722 79.7768C476.638 79.0158 477.608 78.3273 478.629 77.7163ZM481.362 79.09C479.539 80.8449 478.514 83.0577 478.286 85.7284C478.21 86.3363 478.173 86.9477 478.173 87.5599V89.5054C478.277 91.246 478.734 92.9459 479.518 94.5012C480.302 96.0565 481.394 97.4338 482.728 98.5478C484.322 99.8533 486.134 100.861 488.082 101.524C490.209 102.287 492.676 102.668 495.486 102.668C500.725 102.668 504.542 101.505 506.934 99.1773C509.326 96.8504 510.522 93.9693 510.522 90.5359C510.535 89.1468 510.223 87.7744 509.61 86.5299C509.003 85.3087 507.977 84.2597 506.534 83.3823C505.092 82.5049 503.193 81.8179 500.838 81.3218C498.485 80.8258 495.561 80.5783 492.069 80.5783C490.146 80.5814 488.224 80.4665 486.316 80.2346C484.627 80.0457 482.963 79.6614 481.362 79.09ZM494.234 58.8312C497.043 58.8312 499.282 57.9154 500.954 56.0841C502.623 54.2528 503.459 51.7347 503.459 48.53C503.459 46.8569 503.287 45.1885 502.946 43.551C502.628 41.9691 502.029 40.4573 501.181 39.0873C500.339 37.7444 499.185 36.6254 497.822 35.8251C496.416 34.9858 494.651 34.5662 492.525 34.5662C489.867 34.5662 487.759 35.4436 486.202 37.1987C484.646 38.9537 483.867 41.3573 483.867 44.4094C483.867 46.1581 484.038 47.9026 484.38 49.6173C484.69 51.2471 485.268 52.8137 486.089 54.2528C486.866 55.6049 487.96 56.7446 489.278 57.5721C490.607 58.4114 492.259 58.8312 494.234 58.8312ZM563.03 44.524C562.423 44.524 561.987 44.3904 561.721 44.1233C561.476 43.8898 561.297 43.5928 561.21 43.2649C560.677 40.1364 559.442 37.9044 557.506 36.5692C555.57 35.2338 553.159 34.5662 550.274 34.5662C548.166 34.5357 546.106 35.1989 544.407 36.4546C542.698 37.7138 541.845 39.4497 541.845 41.6625C541.845 43.6464 542.624 45.306 544.18 46.6414C545.736 47.9768 548.565 49.2931 552.666 50.5902C554.741 51.2292 556.776 51.9935 558.759 52.8793C560.499 53.6408 562.112 54.6637 563.543 55.9124C564.888 57.1174 565.958 58.6014 566.677 60.262C567.435 61.9788 567.814 64.0199 567.814 66.3851C567.819 68.3445 567.452 70.2871 566.734 72.1084C566.01 73.9423 564.88 75.5861 563.43 76.9155C561.95 78.289 560.088 79.3954 557.849 80.2346C555.609 81.0739 552.932 81.4934 549.818 81.4934C547.083 81.4624 544.357 81.1748 541.674 80.6351C538.82 80.1151 536.068 79.1294 533.53 77.7163C533.379 75.7324 533.246 73.6536 533.13 71.4784C533.017 69.3039 532.96 67.1102 532.96 64.8974H534.099C534.768 64.8777 535.43 65.0152 536.035 65.2979C536.288 65.4181 536.507 65.6028 536.666 65.8334C536.827 66.0648 536.923 66.3337 536.947 66.6141C537.251 69.8191 538.486 72.3942 540.649 74.3404C542.814 76.286 545.832 77.2585 549.704 77.2585C552.818 77.2585 555.21 76.5533 556.88 75.1413C558.551 73.7294 559.386 71.803 559.386 69.3614C559.386 66.8431 558.475 64.9165 556.653 63.5813C554.83 62.2459 552.135 61.0439 548.565 59.9757C544.086 58.6022 540.573 56.809 538.03 54.5962C535.485 52.3833 534.213 49.1403 534.213 44.8674C534.201 42.9387 534.591 41.0288 535.352 39.2588C536.094 37.5301 537.179 35.972 538.542 34.6806C539.995 33.3301 541.697 32.28 543.554 31.5903C545.666 30.8026 547.906 30.4146 550.16 30.4456C553.068 30.4276 555.966 30.8325 558.759 31.6474C561.455 32.4486 563.563 33.3071 565.082 34.2228C565.158 34.8331 565.234 35.5772 565.309 36.4546C565.385 37.3322 565.442 38.2478 565.481 39.2017C565.518 40.1554 565.557 41.1093 565.594 42.063C565.632 43.0169 565.651 43.8754 565.651 44.6384L563.03 44.524ZM583.534 74.054C583.526 73.0894 583.71 72.1324 584.071 71.2388C584.433 70.3451 584.966 69.5322 585.641 68.8461C587.046 67.3583 588.812 66.6141 590.938 66.6141C591.884 66.601 592.822 66.7941 593.687 67.179C594.552 67.5644 595.324 68.1329 595.95 68.8461C597.283 70.2471 598.018 72.1156 598 74.054C598 76.2668 597.317 78.0792 595.95 79.4903C595.306 80.1748 594.529 80.7164 593.665 81.081C592.804 81.4457 591.874 81.625 590.938 81.6083C588.812 81.6083 587.046 80.9022 585.641 79.4903C584.237 78.0792 583.534 76.2668 583.534 74.054Z" fill="#F0F0F0"/>
</svg>
