<svg width="294" height="206" viewBox="0 0 294 206" fill="none" xmlns="http://www.w3.org/2000/svg">
<path d="M36.4085 141.896C27.4485 141.896 20.0672 139.891 14.2645 135.88C8.54717 131.784 5.6885 126.067 5.6885 118.728C5.6885 117.96 5.77383 116.808 5.9445 115.272H24.2485C23.9072 118.856 24.8458 121.8 27.0645 124.104C29.3685 126.408 32.6965 127.56 37.0485 127.56C41.4005 127.56 44.8138 126.664 47.2885 124.872C49.8485 122.995 51.1285 120.349 51.1285 116.936C51.1285 113.779 49.8058 111.261 47.1605 109.384C44.6005 107.507 40.5472 105.416 35.0005 103.112C29.8805 100.979 25.6992 99.016 22.4565 97.224C19.2992 95.432 16.5685 92.9573 14.2645 89.8C12.0458 86.5573 10.9365 82.504 10.9365 77.64C10.9365 72.0933 12.3445 67.272 15.1605 63.176C18.0618 59.08 21.9872 55.9227 26.9365 53.704C31.9712 51.4853 37.6885 50.376 44.0885 50.376C50.4032 50.376 55.8645 51.4427 60.4725 53.576C65.1658 55.624 68.6645 58.568 70.9685 62.408C73.3578 66.248 74.3818 70.728 74.0405 75.848H54.9685L55.0965 74.44C55.0965 71.624 54.0298 69.32 51.8965 67.528C49.8485 65.736 46.9472 64.84 43.1925 64.84C39.1818 64.84 35.9392 65.7787 33.4645 67.656C30.9898 69.5333 29.7525 72.0933 29.7525 75.336C29.7525 77.4693 30.4352 79.3467 31.8005 80.968C33.2512 82.504 35.0005 83.8693 37.0485 85.064C39.0965 86.1733 42.0405 87.624 45.8805 89.416C50.9152 91.6347 55.0538 93.7253 58.2965 95.688C61.5392 97.6507 64.3125 100.253 66.6165 103.496C68.9205 106.739 70.0725 110.707 70.0725 115.4C70.0725 120.52 68.6645 125.085 65.8485 129.096C63.1178 133.107 59.1925 136.264 54.0725 138.568C49.0378 140.787 43.1498 141.896 36.4085 141.896ZM111.974 65.608L107.878 88.776H137.958L135.526 102.6H105.446L101.222 126.792H135.142L132.582 141H80.6135L96.4855 51.528H148.326L145.894 65.608H111.974ZM243.715 87.752C243.715 97.992 241.496 107.165 237.059 115.272C232.707 123.379 226.648 129.736 218.882 134.344L234.883 156.744H212.611L202.115 140.744C198.531 141.512 194.691 141.896 190.595 141.896C183.085 141.896 176.429 140.317 170.627 137.16C164.909 133.917 160.472 129.48 157.315 123.848C154.157 118.131 152.579 111.603 152.579 104.264C152.579 94.024 154.84 84.808 159.363 76.616C163.971 68.424 170.285 62.024 178.307 57.416C186.413 52.7227 195.501 50.376 205.571 50.376C213.165 50.376 219.821 51.9547 225.539 55.112C231.341 58.2693 235.821 62.7067 238.979 68.424C242.136 74.056 243.715 80.4987 243.715 87.752ZM170.883 102.728C170.883 109.725 172.803 115.272 176.643 119.368C180.568 123.379 186.072 125.384 193.155 125.384C199.555 125.384 205.187 123.763 210.051 120.52C215 117.277 218.797 112.925 221.443 107.464C224.173 101.917 225.539 95.9013 225.539 89.416C225.539 82.4187 223.576 76.9147 219.651 72.904C215.725 68.8933 210.221 66.888 203.139 66.888C196.824 66.888 191.192 68.5093 186.243 71.752C181.379 74.9947 177.581 79.3467 174.851 84.808C172.205 90.2693 170.883 96.2427 170.883 102.728ZM258.449 66.76L261.521 50.12H292.241L276.113 141H257.681L270.737 66.76H258.449Z" fill="white"/>
<path d="M36.4249 175.038L28.1049 192.766H23.2409L22.2169 180.446L16.7769 192.766H11.9129L9.86487 175.038H14.3769L15.1449 188.542L20.9369 175.038H25.6729L26.6329 188.51L32.1049 175.038H36.4249ZM68.5449 175.038L60.2249 192.766H55.3609L54.3369 180.446L48.8969 192.766H44.0329L41.9849 175.038H46.4969L47.2649 188.542L53.0569 175.038H57.7929L58.7529 188.51L64.2249 175.038H68.5449ZM100.665 175.038L92.3449 192.766H87.4809L86.4569 180.446L81.0169 192.766H76.1529L74.1049 175.038H78.6169L79.3849 188.542L85.1769 175.038H89.9129L90.8729 188.51L96.3449 175.038H100.665ZM106.993 192.99C106.289 192.99 105.724 192.787 105.297 192.382C104.87 191.977 104.657 191.465 104.657 190.846C104.657 189.993 104.977 189.267 105.617 188.67C106.278 188.051 107.046 187.742 107.921 187.742C108.625 187.742 109.18 187.945 109.585 188.35C110.012 188.734 110.225 189.246 110.225 189.886C110.225 190.739 109.905 191.475 109.265 192.094C108.625 192.691 107.868 192.99 106.993 192.99ZM125.417 193.054C124.116 193.054 122.932 192.841 121.865 192.414C120.82 191.966 119.988 191.358 119.369 190.59C118.772 189.801 118.473 188.905 118.473 187.902C118.473 187.753 118.495 187.507 118.537 187.166H122.889C122.825 187.913 123.049 188.521 123.561 188.99C124.073 189.438 124.799 189.662 125.737 189.662C126.591 189.662 127.295 189.513 127.849 189.214C128.425 188.894 128.713 188.435 128.713 187.838C128.713 187.305 128.447 186.878 127.913 186.558C127.401 186.238 126.58 185.875 125.449 185.47C124.319 185.065 123.38 184.67 122.633 184.286C121.887 183.902 121.247 183.369 120.713 182.686C120.18 182.003 119.913 181.139 119.913 180.094C119.913 179.049 120.212 178.121 120.809 177.31C121.428 176.499 122.281 175.87 123.369 175.422C124.457 174.974 125.705 174.75 127.113 174.75C128.457 174.75 129.641 174.974 130.665 175.422C131.689 175.87 132.479 176.499 133.033 177.31C133.609 178.099 133.897 179.006 133.897 180.03C133.897 180.286 133.887 180.478 133.865 180.606H129.705C129.769 179.859 129.556 179.262 129.065 178.814C128.575 178.366 127.86 178.142 126.921 178.142C126.153 178.142 125.524 178.313 125.033 178.654C124.543 178.974 124.297 179.411 124.297 179.966C124.297 180.521 124.575 180.979 125.129 181.342C125.684 181.683 126.537 182.067 127.689 182.494C128.841 182.942 129.759 183.358 130.441 183.742C131.145 184.105 131.753 184.617 132.265 185.278C132.777 185.918 133.033 186.729 133.033 187.71C133.033 188.798 132.703 189.747 132.041 190.558C131.38 191.369 130.473 191.987 129.321 192.414C128.169 192.841 126.868 193.054 125.417 193.054ZM151.975 174.75C154.236 174.75 156.028 175.379 157.351 176.638C158.674 177.875 159.335 179.55 159.335 181.662C159.335 182.345 159.282 182.953 159.175 183.486C159.047 184.126 158.908 184.681 158.759 185.15H145.799C145.778 185.299 145.767 185.513 145.767 185.79C145.767 186.899 146.087 187.774 146.727 188.414C147.388 189.033 148.252 189.342 149.319 189.342C150.215 189.342 150.983 189.15 151.623 188.766C152.284 188.361 152.818 187.838 153.223 187.198H158.055C157.266 188.905 156.039 190.313 154.375 191.422C152.732 192.51 150.866 193.054 148.775 193.054C146.514 193.054 144.7 192.414 143.335 191.134C141.97 189.854 141.287 188.115 141.287 185.918C141.287 185.278 141.351 184.606 141.479 183.902C141.799 182.067 142.45 180.457 143.431 179.07C144.434 177.683 145.671 176.617 147.143 175.87C148.615 175.123 150.226 174.75 151.975 174.75ZM154.727 182.43C154.77 182.089 154.791 181.843 154.791 181.694C154.791 180.67 154.46 179.87 153.799 179.294C153.138 178.718 152.274 178.43 151.207 178.43C150.076 178.43 149.063 178.793 148.167 179.518C147.271 180.222 146.642 181.193 146.279 182.43H154.727ZM166.317 183.87C166.637 182.099 167.288 180.531 168.269 179.166C169.25 177.779 170.434 176.702 171.821 175.934C173.229 175.166 174.69 174.782 176.205 174.782C177.464 174.782 178.541 175.027 179.437 175.518C180.333 175.987 180.994 176.595 181.421 177.342L181.837 175.038H186.349L181.741 201.214H177.229L179.117 190.334C178.392 191.102 177.485 191.742 176.397 192.254C175.33 192.766 174.157 193.022 172.877 193.022C171.576 193.022 170.413 192.723 169.389 192.126C168.365 191.529 167.565 190.686 166.989 189.598C166.413 188.51 166.125 187.251 166.125 185.822C166.125 185.182 166.189 184.531 166.317 183.87ZM180.269 183.902C180.333 183.475 180.365 183.081 180.365 182.718C180.365 181.438 179.992 180.446 179.245 179.742C178.52 179.038 177.613 178.686 176.525 178.686C175.736 178.686 174.946 178.889 174.157 179.294C173.368 179.699 172.674 180.297 172.077 181.086C171.501 181.854 171.117 182.782 170.925 183.87C170.861 184.275 170.829 184.67 170.829 185.054C170.829 186.313 171.202 187.305 171.949 188.03C172.696 188.755 173.602 189.118 174.669 189.118C175.48 189.118 176.269 188.915 177.037 188.51C177.826 188.105 178.509 187.507 179.085 186.718C179.682 185.929 180.077 184.99 180.269 183.902ZM194.948 174.206L195.716 170.046H203.396L199.364 192.766H194.756L198.02 174.206H194.948ZM211.374 192.99C210.67 192.99 210.105 192.787 209.678 192.382C209.251 191.977 209.038 191.465 209.038 190.846C209.038 189.993 209.358 189.267 209.998 188.67C210.659 188.051 211.427 187.742 212.302 187.742C213.006 187.742 213.561 187.945 213.966 188.35C214.393 188.734 214.606 189.246 214.606 189.886C214.606 190.739 214.286 191.475 213.646 192.094C213.006 192.691 212.249 192.99 211.374 192.99ZM235.847 174.782C237.681 174.782 239.121 175.283 240.167 176.286C241.233 177.267 241.767 178.675 241.767 180.51C241.767 181.193 241.713 181.811 241.607 182.366L239.751 192.766H235.303L237.031 182.974C237.095 182.59 237.127 182.217 237.127 181.854C237.127 180.787 236.839 179.977 236.263 179.422C235.708 178.867 234.908 178.59 233.863 178.59C232.668 178.59 231.644 178.953 230.791 179.678C229.959 180.382 229.404 181.406 229.127 182.75L227.367 192.766H222.855L225.991 175.038H230.503L230.119 177.214C230.844 176.467 231.708 175.881 232.711 175.454C233.713 175.006 234.759 174.782 235.847 174.782ZM260.075 174.75C262.336 174.75 264.128 175.379 265.451 176.638C266.774 177.875 267.435 179.55 267.435 181.662C267.435 182.345 267.382 182.953 267.275 183.486C267.147 184.126 267.008 184.681 266.859 185.15H253.899C253.878 185.299 253.867 185.513 253.867 185.79C253.867 186.899 254.187 187.774 254.827 188.414C255.488 189.033 256.352 189.342 257.419 189.342C258.315 189.342 259.083 189.15 259.723 188.766C260.384 188.361 260.918 187.838 261.323 187.198H266.155C265.366 188.905 264.139 190.313 262.475 191.422C260.832 192.51 258.966 193.054 256.875 193.054C254.614 193.054 252.8 192.414 251.435 191.134C250.07 189.854 249.387 188.115 249.387 185.918C249.387 185.278 249.451 184.606 249.579 183.902C249.899 182.067 250.55 180.457 251.531 179.07C252.534 177.683 253.771 176.617 255.243 175.87C256.715 175.123 258.326 174.75 260.075 174.75ZM262.827 182.43C262.87 182.089 262.891 181.843 262.891 181.694C262.891 180.67 262.56 179.87 261.899 179.294C261.238 178.718 260.374 178.43 259.307 178.43C258.176 178.43 257.163 178.793 256.267 179.518C255.371 180.222 254.742 181.193 254.379 182.43H262.827ZM280.209 187.294C280.188 187.422 280.177 187.593 280.177 187.806C280.177 188.233 280.294 188.542 280.529 188.734C280.785 188.905 281.201 188.99 281.777 188.99H283.889L283.217 192.766H280.369C277.169 192.766 275.569 191.433 275.569 188.766C275.569 188.254 275.612 187.753 275.697 187.262L277.201 178.718H275.089L275.729 175.038H277.873L278.641 170.654H283.153L282.385 175.038H286.321L285.681 178.718H281.713L280.209 187.294Z" fill="white"/>
</svg>
