<svg width="807" height="177" viewBox="0 0 807 177" fill="none" xmlns="http://www.w3.org/2000/svg">
<path d="M80.872 74.696C80.0187 79.9013 77.8853 84.2533 74.472 87.752C71.144 91.1653 67.048 93.64 62.184 95.176C66.28 96.0293 69.5653 98.0773 72.04 101.32C74.6 104.563 75.88 108.403 75.88 112.84C75.88 114.035 75.752 115.357 75.496 116.808C74.3013 124.061 70.632 129.907 64.488 134.344C58.4293 138.781 50.8347 141 41.704 141H3.176L19.048 51.656H55.912C64.0187 51.656 70.248 53.3627 74.6 56.776C79.0373 60.1893 81.256 64.7547 81.256 70.472C81.256 71.8373 81.128 73.2453 80.872 74.696ZM62.184 77.384C62.2693 76.872 62.312 76.104 62.312 75.08C62.312 72.0933 61.3307 69.7893 59.368 68.168C57.4053 66.5467 54.5467 65.736 50.792 65.736H34.536L30.44 88.776H46.824C51.0053 88.776 54.4613 87.7947 57.192 85.832C59.9227 83.784 61.5867 80.968 62.184 77.384ZM57.704 114.632C57.8747 113.437 57.96 112.584 57.96 112.072C57.96 109 56.8507 106.611 54.632 104.904C52.4987 103.112 49.512 102.216 45.672 102.216H28.008L23.784 126.792H41.832C46.184 126.792 49.768 125.725 52.584 123.592C55.4 121.459 57.1067 118.472 57.704 114.632ZM127.282 141.896C119.773 141.896 113.117 140.317 107.314 137.16C101.597 133.917 97.1593 129.48 94.002 123.848C90.8447 118.131 89.266 111.603 89.266 104.264C89.266 94.024 91.5273 84.808 96.05 76.616C100.658 68.424 106.973 62.024 114.994 57.416C123.101 52.7227 132.189 50.376 142.258 50.376C149.853 50.376 156.509 51.9547 162.226 55.112C168.029 58.2693 172.509 62.7067 175.666 68.424C178.823 74.056 180.402 80.4987 180.402 87.752C180.402 98.1627 178.141 107.464 173.618 115.656C169.095 123.848 162.781 130.291 154.674 134.984C146.567 139.592 137.437 141.896 127.282 141.896ZM129.842 125.384C136.242 125.384 141.874 123.763 146.738 120.52C151.687 117.277 155.485 112.925 158.13 107.464C160.861 101.917 162.226 95.9013 162.226 89.416C162.226 82.4187 160.263 76.9147 156.338 72.904C152.413 68.8933 146.909 66.888 139.826 66.888C133.511 66.888 127.879 68.5093 122.93 71.752C118.066 74.9947 114.269 79.3467 111.538 84.808C108.893 90.2693 107.57 96.2427 107.57 102.728C107.57 109.725 109.49 115.272 113.33 119.368C117.255 123.379 122.759 125.384 129.842 125.384ZM206.406 127.304H235.846L233.414 141H185.926L201.798 51.656H219.718L206.406 127.304ZM291.78 51.656C300.057 51.656 307.183 53.1067 313.156 56.008C319.215 58.824 323.823 62.8773 326.98 68.168C330.223 73.4587 331.844 79.7307 331.844 86.984C331.844 90.2267 331.545 93.384 330.948 96.456C329.412 105.416 326.084 113.267 320.964 120.008C315.929 126.664 309.529 131.827 301.764 135.496C293.999 139.165 285.38 141 275.908 141H244.676L260.548 51.656H291.78ZM277.956 126.408C287.343 126.408 295.023 123.763 300.996 118.472C307.055 113.181 310.937 105.843 312.644 96.456C313.071 93.64 313.284 91.208 313.284 89.16C313.284 81.992 311.151 76.4453 306.884 72.52C302.703 68.5947 296.559 66.632 288.452 66.632H275.908L265.412 126.408H277.956ZM413.098 51.656L410.538 65.736H386.858L373.546 141H355.498L368.81 65.736H345.002L347.562 51.656H413.098ZM500.285 51.656L484.541 141H466.493L473.277 102.728H435.133L428.349 141H410.301L426.173 51.656H444.093L437.565 88.648H475.837L482.365 51.656H500.285ZM535.843 51.656L520.099 141H502.051L517.923 51.656H535.843ZM614.22 141H596.172L566.604 79.688L555.724 141H537.676L553.548 51.528H571.468L601.164 112.968L612.044 51.528H629.964L614.22 141ZM635.513 96.2C637.049 87.4107 640.42 79.56 645.625 72.648C650.83 65.6507 657.23 60.232 664.825 56.392C672.42 52.4667 680.484 50.504 689.017 50.504C699.086 50.504 707.364 52.9787 713.849 57.928C720.42 62.792 724.388 69.6613 725.753 78.536H705.145C703.78 74.7813 701.476 71.9227 698.233 69.96C694.99 67.9973 690.98 67.016 686.201 67.016C680.91 67.016 676.004 68.2107 671.481 70.6C666.958 72.9893 663.161 76.4027 660.089 80.84C657.017 85.2773 654.969 90.3973 653.945 96.2C653.518 98.248 653.305 100.595 653.305 103.24C653.305 110.237 655.353 115.741 659.449 119.752C663.63 123.677 669.348 125.64 676.601 125.64C683.342 125.64 689.23 123.805 694.265 120.136C699.385 116.467 703.182 111.389 705.657 104.904H674.937L677.241 91.336H725.625L722.809 106.952C720.505 113.181 716.921 118.941 712.057 124.232C707.193 129.523 701.39 133.789 694.649 137.032C687.908 140.189 680.697 141.768 673.017 141.768C665.422 141.768 658.724 140.232 652.921 137.16C647.204 134.088 642.724 129.821 639.481 124.36C636.324 118.813 634.745 112.413 634.745 105.16C634.745 102.259 635.001 99.272 635.513 96.2ZM763.971 141.896C755.011 141.896 747.63 139.891 741.827 135.88C736.11 131.784 733.251 126.067 733.251 118.728C733.251 117.96 733.336 116.808 733.507 115.272H751.811C751.47 118.856 752.408 121.8 754.627 124.104C756.931 126.408 760.259 127.56 764.611 127.56C768.963 127.56 772.376 126.664 774.851 124.872C777.411 122.995 778.691 120.349 778.691 116.936C778.691 113.779 777.368 111.261 774.723 109.384C772.163 107.507 768.11 105.416 762.563 103.112C757.443 100.979 753.262 99.016 750.019 97.224C746.862 95.432 744.131 92.9573 741.827 89.8C739.608 86.5573 738.499 82.504 738.499 77.64C738.499 72.0933 739.907 67.272 742.723 63.176C745.624 59.08 749.55 55.9227 754.499 53.704C759.534 51.4853 765.251 50.376 771.651 50.376C777.966 50.376 783.427 51.4427 788.035 53.576C792.728 55.624 796.227 58.568 798.531 62.408C800.92 66.248 801.944 70.728 801.603 75.848H782.531L782.659 74.44C782.659 71.624 781.592 69.32 779.459 67.528C777.411 65.736 774.51 64.84 770.755 64.84C766.744 64.84 763.502 65.7787 761.027 67.656C758.552 69.5333 757.315 72.0933 757.315 75.336C757.315 77.4693 757.998 79.3467 759.363 80.968C760.814 82.504 762.563 83.8693 764.611 85.064C766.659 86.1733 769.603 87.624 773.443 89.416C778.478 91.6347 782.616 93.7253 785.859 95.688C789.102 97.6507 791.875 100.253 794.179 103.496C796.483 106.739 797.635 110.707 797.635 115.4C797.635 120.52 796.227 125.085 793.411 129.096C790.68 133.107 786.755 136.264 781.635 138.568C776.6 140.787 770.712 141.896 763.971 141.896Z" fill="#0D0D0D"/>
</svg>
